<svg width="90" height="90" viewBox="0 0 90 90" fill="none" xmlns="http://www.w3.org/2000/svg">
<g id="account-saving" clip-path="url(#clip0_102_354)">
<g id="Clip path group">
<mask id="mask0_102_354" style="mask-type:luminance" maskUnits="userSpaceOnUse" x="0" y="0" width="90" height="90">
<g id="clip0_260_4590">
<path id="Vector" d="M90 0H0V90H90V0Z" fill="white"/>
</g>
</mask>
<g mask="url(#mask0_102_354)">
<g id="Group">
<path id="Vector_2" d="M37.5 33.75V33.7875M48.375 18.3333C45.5531 18.3333 42.8213 18.65 40.2289 19.2425C37.4508 16.6146 33.6819 15 29.5312 15C28.7546 15 28.125 15.6218 28.125 16.3889V24.6991C25.4472 26.6717 23.1972 29.0295 21.5034 31.6666H18C14.2721 31.6666 11.25 34.6514 11.25 38.3333V48.3334C11.25 52.0151 14.2721 55.0001 18 55.0001H21.5034C23.1972 57.6371 25.4472 59.9951 28.125 61.9676V71.6666C28.125 73.5075 29.6361 75 31.5 75H37.875C39.7391 75 41.25 73.5075 41.25 71.6666V67.5C41.25 67.5 54.375 67.5 55.5 67.5V71.6666C55.5 73.5075 57.0109 75 58.875 75H65.25C67.1141 75 68.625 73.5075 68.625 71.6666V61.9676C74.8391 57.39 78.75 50.7375 78.75 43.3335C78.75 29.5262 65.1506 18.3333 48.375 18.3333Z" stroke="#49B742" stroke-width="4" stroke-linecap="round" stroke-linejoin="round"/>
</g>
</g>
</g>
</g>
<defs>
<clipPath id="clip0_102_354">
<rect width="90" height="90" fill="white"/>
</clipPath>
</defs>
</svg>
