<svg width="90" height="90" viewBox="0 0 90 90" fill="none" xmlns="http://www.w3.org/2000/svg">
<g id="Frame" clip-path="url(#clip0_102_348)">
<path id="Vector" d="M15 52.5V41.25C15 33.2935 18.1607 25.6629 23.7868 20.0368C29.4129 14.4107 37.0435 11.25 45 11.25C52.9565 11.25 60.5871 14.4107 66.2132 20.0368C71.8393 25.6629 75 33.2935 75 41.25V52.5" stroke="#49B742" stroke-width="4" stroke-linecap="round" stroke-linejoin="round"/>
<path id="Vector_2" d="M67.5 71.25C67.5 77.4637 57.4275 82.5 45 82.5" stroke="#49B742" stroke-width="4" stroke-linecap="round" stroke-linejoin="round"/>
<path id="Vector_3" d="M15 52.5C15 50.5109 15.7902 48.6032 17.1967 47.1967C18.6032 45.7902 20.5109 45 22.5 45H26.25C28.2391 45 30.1468 45.7902 31.5533 47.1967C32.9598 48.6032 33.75 50.5109 33.75 52.5V63.75C33.75 65.7391 32.9598 67.6468 31.5533 69.0533C30.1468 70.4598 28.2391 71.25 26.25 71.25H22.5C20.5109 71.25 18.6032 70.4598 17.1967 69.0533C15.7902 67.6468 15 65.7391 15 63.75V52.5Z" stroke="#49B742" stroke-width="4" stroke-linecap="round" stroke-linejoin="round"/>
<path id="Vector_4" d="M56.25 52.5C56.25 50.5109 57.0402 48.6032 58.4467 47.1967C59.8532 45.7902 61.7609 45 63.75 45H67.5C69.4891 45 71.3968 45.7902 72.8033 47.1967C74.2098 48.6032 75 50.5109 75 52.5V63.75C75 65.7391 74.2098 67.6468 72.8033 69.0533C71.3968 70.4598 69.4891 71.25 67.5 71.25H63.75C61.7609 71.25 59.8532 70.4598 58.4467 69.0533C57.0402 67.6468 56.25 65.7391 56.25 63.75V52.5Z" stroke="#49B742" stroke-width="4" stroke-linecap="round" stroke-linejoin="round"/>
</g>
<defs>
<clipPath id="clip0_102_348">
<rect width="90" height="90" fill="white"/>
</clipPath>
</defs>
</svg>
