<svg width="90" height="90" viewBox="0 0 90 90" fill="none" xmlns="http://www.w3.org/2000/svg">
<g id="qr-code" clip-path="url(#clip0_102_342)">
<g id="Clip path group">
<mask id="mask0_102_342" style="mask-type:luminance" maskUnits="userSpaceOnUse" x="0" y="0" width="90" height="90">
<g id="clip0_247_5200">
<path id="Vector" d="M90 0H0V90H90V0Z" fill="white"/>
</g>
</mask>
<g mask="url(#mask0_102_342)">
<g id="Group">
<path id="Vector_2" d="M78.75 52.5V52.5439M52.5 78.75C52.5 78.75 59.7671 78.75 65.625 78.75M65.625 65.625H73.125C78.75 65.625 78.75 71.25 78.75 71.25V78.75M52.5 65.625V58.125C52.5 58.125 52.5 52.5 58.125 52.5H65.625M18.75 11.25H30C37.5 11.25 37.5 18.75 37.5 18.75V30C37.5 30 37.5 37.5 30 37.5H18.75C11.25 37.5 11.25 30 11.25 30V18.75C11.25 18.75 11.25 11.25 18.75 11.25ZM60 11.25H71.25C78.75 11.25 78.75 18.75 78.75 18.75V30C78.75 30 78.75 37.5 71.25 37.5H60C52.5 37.5 52.5 30 52.5 30V18.75C52.5 18.75 52.5 11.25 60 11.25ZM18.75 52.5H30C37.5 52.5 37.5 60 37.5 60V71.25C37.5 71.25 37.5 78.75 30 78.75H18.75C11.25 78.75 11.25 71.25 11.25 71.25V60C11.25 60 11.25 52.5 18.75 52.5Z" stroke="#49B742" stroke-width="4" stroke-linecap="round" stroke-linejoin="round"/>
</g>
</g>
</g>
</g>
<defs>
<clipPath id="clip0_102_342">
<rect width="90" height="90" fill="white"/>
</clipPath>
</defs>
</svg>
