<svg width="100" height="100" viewBox="0 0 100 100" fill="none" xmlns="http://www.w3.org/2000/svg">
<g id="transaction-payment-services" clip-path="url(#clip0_102_9)">
<g id="Clip path group">
<mask id="mask0_102_9" style="mask-type:luminance" maskUnits="userSpaceOnUse" x="0" y="0" width="100" height="100">
<g id="clip0_142_147">
<path id="Vector" d="M100 0H0V100H100V0Z" fill="white"/>
</g>
</mask>
<g mask="url(#mask0_102_9)">
<g id="Group">
<path id="Vector_2" d="M38.4997 72.6192H61.4996M12.5 50H12.9558M50 12.5V12.793M87.2721 50H87.5M23.3333 23.3333L23.5352 23.5352M76.6667 23.3333L76.465 23.5352M35 67.8571C30.8023 64.8587 27.7017 60.6787 26.1372 55.9087C24.5727 51.1388 24.6237 46.0213 26.2829 41.2803C27.9422 36.5395 31.1256 32.4162 35.3823 29.4942C39.6389 26.5723 44.7529 25 50 25C55.2471 25 60.3612 26.5723 64.6179 29.4942C68.8746 32.4162 72.0579 36.5395 73.7171 41.2803C75.3762 46.0213 75.4275 51.1388 73.8629 55.9087C72.2983 60.6787 69.1975 64.8587 65 67.8571C63.0479 69.6975 61.5779 71.9496 60.7092 74.4317C59.8408 76.9133 59.5979 79.555 60 82.1429C60 84.6687 58.9462 87.0912 57.0712 88.8771C55.1958 90.6633 52.6521 91.6667 50 91.6667C47.3479 91.6667 44.8042 90.6633 42.9288 88.8771C41.0536 87.0912 40 84.6687 40 82.1429C40.4023 79.555 40.1593 76.9133 39.2906 74.4317C38.422 71.9496 36.9522 69.6975 35 67.8571Z" stroke="#49B742" stroke-width="4" stroke-linecap="round" stroke-linejoin="round"/>
</g>
</g>
</g>
</g>
<defs>
<clipPath id="clip0_102_9">
<rect width="100" height="100" fill="white"/>
</clipPath>
</defs>
</svg>
